<svg width="96" height="96" viewBox="0 0 96 96" fill="none" xmlns="http://www.w3.org/2000/svg">
<path d="M0.265961 48C0.265961 74.3628 21.6372 95.7341 48 95.7341C74.3628 95.7341 95.7341 74.3628 95.7341 48C95.7341 21.6372 74.3628 0.265923 48 0.265923C21.6372 0.265923 0.265961 21.6372 0.265961 48Z" fill="#FBC117"/>
<path d="M46.9956 57.195C45.4244 57.195 44.2654 56.7828 43.5184 55.9587C42.7973 55.1087 42.4367 54.0656 42.4367 52.8293C42.4367 52.2884 42.5011 51.6831 42.6299 51.0135C42.7586 50.318 42.8874 49.6484 43.0162 49.0045C43.1707 48.3606 43.2738 47.9485 43.3253 47.7682C43.5313 46.8667 43.7245 45.9781 43.9048 45.1024C44.0851 44.2267 44.1752 43.5184 44.1752 42.9775C44.1752 41.6639 43.7116 41.0071 42.7844 41.0071C42.1147 41.0071 41.5223 41.342 41.0072 42.0116C40.4921 42.6555 40.08 43.5055 39.7709 44.5615L37.1438 56.9632H31.5804L34.4007 43.6343C34.478 43.3252 34.5166 43.0032 34.5166 42.6684C34.5166 41.5351 34.1303 40.9685 33.3576 40.9685C32.6364 40.9685 32.0054 41.3033 31.4645 41.973C30.9494 42.6169 30.5373 43.4797 30.2282 44.5615L27.6011 56.9632H22.0377L26.1329 37.6459H31.6963L31.2713 39.6549C32.5849 38.1868 34.156 37.4528 35.9847 37.4528C38.2513 37.4528 39.5777 38.5603 39.9641 40.7753C41.3807 38.586 43.1707 37.4914 45.3343 37.4914C46.6479 37.4914 47.691 37.852 48.4637 38.5732C49.2364 39.2943 49.6227 40.389 49.6227 41.8571C49.6227 42.604 49.5326 43.4411 49.3523 44.3683C49.172 45.2698 48.9144 46.3773 48.5796 47.6909C48.3735 48.4893 48.1804 49.2749 48.0001 50.0476C47.8455 50.7945 47.7682 51.3869 47.7682 51.8248C47.7682 52.3399 47.8841 52.7391 48.1159 53.0224C48.3478 53.3058 48.747 53.4474 49.3136 53.4474C50.0863 53.4474 50.7044 53.177 51.1681 52.6361C51.6317 52.0695 52.0953 51.2066 52.5589 50.0476H54.1816C53.2286 52.8808 52.121 54.7867 50.859 55.7655C49.6227 56.7185 48.3349 57.195 46.9956 57.195Z" fill="black"/>
<path d="M58.7017 35.521C57.8518 35.521 57.1306 35.2248 56.5382 34.6324C55.9458 34.04 55.6496 33.3189 55.6496 32.4689C55.6496 31.619 55.9458 30.8978 56.5382 30.3054C57.1306 29.6872 57.8518 29.3782 58.7017 29.3782C59.5517 29.3782 60.2729 29.6872 60.8653 30.3054C61.4834 30.8978 61.7925 31.619 61.7925 32.4689C61.7925 33.3189 61.4834 34.04 60.8653 34.6324C60.2729 35.2248 59.5517 35.521 58.7017 35.521ZM49.0818 66.6218C47.8454 66.6218 46.8152 66.2998 45.991 65.6559C45.1668 65.012 44.7547 64.0848 44.7547 62.8743C44.7547 60.3759 46.8667 58.457 51.0907 57.1177L55.2246 37.6459H60.788L56.9632 55.5723C58.1995 55.1602 59.1911 54.5421 59.938 53.7179C60.685 52.8937 61.316 51.6702 61.8311 50.0476H63.4538C62.7583 52.3399 61.8182 54.027 60.6334 55.1087C59.4487 56.1647 58.1093 56.8859 56.6155 57.2722L56.036 60.0539C55.5208 62.5523 54.6322 64.2651 53.3702 65.1923C52.1081 66.1453 50.6786 66.6218 49.0818 66.6218ZM48.1932 63.6083C48.631 63.6083 49.056 63.3121 49.4681 62.7197C49.8802 62.1273 50.2022 61.2774 50.434 60.1698L50.6658 59.0494C48.1417 59.9767 46.8796 61.0713 46.8796 62.3334C46.8796 62.6682 46.9955 62.9644 47.2273 63.2219C47.4591 63.4795 47.7811 63.6083 48.1932 63.6083Z" fill="black"/>
<path d="M66.2354 57.195C64.9991 57.195 63.956 56.9631 63.106 56.4995C62.2561 56.0102 61.625 55.392 61.2129 54.6451C60.8008 53.8724 60.5948 53.074 60.5948 52.2498C60.5948 51.3998 60.8008 50.6657 61.2129 50.0476C61.5993 49.4037 62.0758 48.9401 62.6424 48.6567C63.6469 46.8538 64.5226 45.038 65.2696 43.2093C66.0165 41.3548 66.7248 39.3587 67.3945 37.221L73.1124 36.4483C73.2411 39.7451 73.46 43.3123 73.7691 47.15C73.8978 48.6954 73.9622 49.8158 73.9622 50.5112C73.9622 52.0823 73.563 53.3701 72.7646 54.3746C71.9661 55.3791 70.9745 56.1003 69.7897 56.5382C68.6306 56.976 67.4459 57.195 66.2353 57.195H66.2354ZM64.9991 54.1429C65.9521 54.1429 66.7506 53.8595 67.3945 53.2929C68.0384 52.7262 68.3603 51.8119 68.3603 50.5498C68.3603 49.7771 68.2831 48.6954 68.1286 47.3045C67.871 44.3683 67.7036 42.398 67.6264 41.3935C67.0082 43.4282 65.9651 45.8622 64.497 48.6954C65.0894 49.0045 65.3856 49.4552 65.3856 50.0476C65.3856 50.537 65.2181 50.9748 64.8833 51.3612C64.5742 51.7475 64.175 51.9407 63.6856 51.9407C63.1448 51.9407 62.797 51.7733 62.6425 51.4384C62.6425 52.3657 62.8228 53.0482 63.1834 53.4861C63.5697 53.9239 64.175 54.1429 64.9992 54.1429H64.9991Z" fill="black"/>
</svg>
